
<svg width="226px" height="250px" viewBox="0 0 226 250" version="1.1" xmlns="http://www.w3.org/2000/svg" xmlns:xlink="http://www.w3.org/1999/xlink">
    <!-- Generator: Sketch 44.1 (41455) - http://www.bohemiancoding.com/sketch -->
    <desc>Created with Sketch.</desc>
    <defs></defs>
    <g id="Page-1" stroke="none" stroke-width="1" fill="none" fill-rule="evenodd">
        <g id="Desktop-HD" transform="translate(-197.000000, -929.000000)">
            <g id="ic_graphic_eq_black_48px" transform="translate(160.000000, 904.000000)">
                <polygon id="Shape" points="0 0 300 0 300 300 0 300"></polygon>
                <path d="M87.5,225 L112.5,225 L112.5,75 L87.5,75 L87.5,225 Z M137.5,275 L162.5,275 L162.5,25 L137.5,25 L137.5,275 Z M37.5,175 L62.5,175 L62.5,125 L37.5,125 L37.5,175 Z M187.5,225 L212.5,225 L212.5,75 L187.5,75 L187.5,225 Z M237.5,125 L237.5,175 L262.5,175 L262.5,125 L237.5,125 Z" id="Shape" fill="#4A4A4A" fill-rule="nonzero"></path>
            </g>
        </g>
    </g>
</svg>