<svg width="226px" height="201px" viewBox="0 0 226 201" version="1.1" xmlns="http://www.w3.org/2000/svg" xmlns:xlink="http://www.w3.org/1999/xlink">
    <!-- Generator: Sketch 44.1 (41455) - http://www.bohemiancoding.com/sketch -->
    <desc>Created with Sketch.</desc>
    <defs></defs>
    <g id="Page-1" stroke="none" stroke-width="1" fill="none" fill-rule="evenodd">
        <g id="Desktop-HD" transform="translate(-1076.000000, -966.000000)">
            <g id="ic_directions_car_black_48px" transform="translate(1039.000000, 904.000000)">
                <path d="M236.5,75.125 C234,67.75 227,62.5 218.75,62.5 L81.25,62.5 C73,62.5 66.125,67.75 63.5,75.125 L37.5,150 L37.5,250 C37.5,256.875 43.125,262.5 50,262.5 L62.5,262.5 C69.375,262.5 75,256.875 75,250 L75,237.5 L225,237.5 L225,250 C225,256.875 230.625,262.5 237.5,262.5 L250,262.5 C256.875,262.5 262.5,256.875 262.5,250 L262.5,150 L236.5,75.125 Z M81.25,200 C70.875,200 62.5,191.625 62.5,181.25 C62.5,170.875 70.875,162.5 81.25,162.5 C91.625,162.5 100,170.875 100,181.25 C100,191.625 91.625,200 81.25,200 Z M218.75,200 C208.375,200 200,191.625 200,181.25 C200,170.875 208.375,162.5 218.75,162.5 C229.125,162.5 237.5,170.875 237.5,181.25 C237.5,191.625 229.125,200 218.75,200 Z M62.5,137.5 L81.25,81.25 L218.75,81.25 L237.5,137.5 L62.5,137.5 Z" id="Shape" fill="#4A4A4A" fill-rule="nonzero"></path>
                <polygon id="Shape" points="0 0 300 0 300 300 0 300"></polygon>
            </g>
        </g>
    </g>
</svg>