
<svg width="95px" height="12px" viewBox="0 0 95 12" version="1.1" xmlns="http://www.w3.org/2000/svg" xmlns:xlink="http://www.w3.org/1999/xlink">
    <!-- Generator: Sketch 44.1 (41455) - http://www.bohemiancoding.com/sketch -->
    <desc>Created with Sketch.</desc>
    <defs>
        <linearGradient x1="50%" y1="0%" x2="50%" y2="100%" id="linearGradient-1">
            <stop stop-color="#005DFF" offset="0%"></stop>
            <stop stop-color="#4990E2" offset="100%"></stop>
        </linearGradient>
    </defs>
    <g id="Page-1" stroke="none" stroke-width="1" fill="none" fill-rule="evenodd">
        <g id="Desktop-HD" transform="translate(-196.000000, -110.000000)" fill="url(#linearGradient-1)">
            <path d="M203.829,111.281 C204.567004,111.923003 204.936,112.840994 204.936,114.035 C204.936,115.229006 204.567004,116.146997 203.829,116.789 C203.090996,117.431003 202.062007,117.752 200.742,117.752 L198.762,117.752 L198.762,122 L196.62,122 L196.62,110.318 L200.742,110.318 C202.062007,110.318 203.090996,110.638997 203.829,111.281 Z M200.742,115.898 C201.402003,115.898 201.899998,115.724002 202.236,115.376 C202.572002,115.027998 202.74,114.581003 202.74,114.035 C202.74,113.488997 202.572002,113.039002 202.236,112.685 C201.899998,112.330998 201.402003,112.154 200.742,112.154 L198.762,112.154 L198.762,115.898 L200.742,115.898 Z M215.894,110.318 L218.558,110.318 L222.392,122 L220.142,122 L219.332,119.48 L214.994,119.48 L214.166,122 L211.916,122 L215.894,110.318 Z M215.534,117.878 L218.81,117.878 L217.19,112.856 L215.534,117.878 Z M239.938,113.9 C239.938,114.728004 239.704003,115.435997 239.236,116.024 C238.767998,116.612003 238.096005,117.019999 237.22,117.248 L240.352,122 L237.58,122 L235.006,117.446 L233.386,117.446 L233.386,122 L231.262,122 L231.262,110.318 L235.582,110.318 C236.962007,110.318 238.035997,110.647997 238.804,111.308 C239.560004,111.944003 239.938,112.807995 239.938,113.9 Z M235.384,116.024 C236.164004,116.024 236.751998,115.847002 237.148,115.493 C237.544002,115.138998 237.742,114.671003 237.742,114.089 C237.742,113.506997 237.562002,113.039002 237.202,112.685 C236.841999,112.330998 236.302004,112.154 235.582,112.154 L233.386,112.154 L233.386,116.024 L235.384,116.024 Z M251.796001,110.318 L251.796001,115.124 L256.404001,110.318 L259.320001,110.318 L254.172001,115.574 L259.662001,122 L256.908001,122 L252.750001,117.05 L251.796001,118.022 L251.796001,122 L249.654001,122 L249.654001,110.318 L251.796001,110.318 Z M268.226001,110.318 L270.350001,110.318 L270.350001,122 L268.226001,122 L268.226001,110.318 Z M290.506001,122 L287.842001,122 L284.764001,117.86 L282.028001,122 L279.436001,122 L283.558001,116.186 L279.418001,110.318 L282.028001,110.318 L284.980001,114.53 L287.536001,110.318 L290.110001,110.318 L286.168001,116.15 L290.506001,122 Z" id="PARKIX"></path>
        </g>
    </g>
</svg>